<svg width="18" height="18" viewBox="0 0 18 18" fill="none" xmlns="http://www.w3.org/2000/svg">
<path d="M16.0312 4.78125C16.1249 4.875 16.2187 4.99554 16.3124 5.14286H11.5714V0.401786C11.7187 0.495536 11.8392 0.589286 11.933 0.683036L16.0312 4.78125ZM11.2499 6.42857H16.7142V17.0357C16.7142 17.3036 16.6205 17.5312 16.433 17.7188C16.2455 17.9062 16.0178 18 15.7499 18H2.24993C1.98207 18 1.75439 17.9062 1.56689 17.7188C1.37939 17.5312 1.28564 17.3036 1.28564 17.0357V0.964286C1.28564 0.696429 1.37939 0.46875 1.56689 0.28125C1.75439 0.09375 1.98207 0 2.24993 0H10.2856V5.46429C10.2856 5.73214 10.3794 5.95982 10.5669 6.14732C10.7544 6.33482 10.9821 6.42857 11.2499 6.42857ZM12.8571 13.8214V13.1786C12.8571 13.0848 12.8269 13.0078 12.7667 12.9475C12.7064 12.8873 12.6294 12.8571 12.5356 12.8571H5.46422C5.37047 12.8571 5.29346 12.8873 5.23319 12.9475C5.17292 13.0078 5.14279 13.0848 5.14279 13.1786V13.8214C5.14279 13.9152 5.17292 13.9922 5.23319 14.0525C5.29346 14.1127 5.37047 14.1429 5.46422 14.1429H12.5356C12.6294 14.1429 12.7064 14.1127 12.7667 14.0525C12.8269 13.9922 12.8571 13.9152 12.8571 13.8214ZM12.8571 11.25V10.6071C12.8571 10.5134 12.8269 10.4364 12.7667 10.3761C12.7064 10.3158 12.6294 10.2857 12.5356 10.2857H5.46422C5.37047 10.2857 5.29346 10.3158 5.23319 10.3761C5.17292 10.4364 5.14279 10.5134 5.14279 10.6071V11.25C5.14279 11.3438 5.17292 11.4208 5.23319 11.481C5.29346 11.5413 5.37047 11.5714 5.46422 11.5714H12.5356C12.6294 11.5714 12.7064 11.5413 12.7667 11.481C12.8269 11.4208 12.8571 11.3438 12.8571 11.25ZM12.8571 8.67857V8.03571C12.8571 7.94196 12.8269 7.86496 12.7667 7.80469C12.7064 7.74442 12.6294 7.71429 12.5356 7.71429H5.46422C5.37047 7.71429 5.29346 7.74442 5.23319 7.80469C5.17292 7.86496 5.14279 7.94196 5.14279 8.03571V8.67857C5.14279 8.77232 5.17292 8.84933 5.23319 8.9096C5.29346 8.96987 5.37047 9 5.46422 9H12.5356C12.6294 9 12.7064 8.96987 12.7667 8.9096C12.8269 8.84933 12.8571 8.77232 12.8571 8.67857Z" fill="white"/>
</svg>
